<svg xmlns="http://www.w3.org/2000/svg" xmlns:xlink="http://www.w3.org/1999/xlink" width="31.971" height="31.971" viewBox="0 0 31.971 31.971">
  <defs>
    <clipPath id="clip-path">
      <path id="Path_37469" data-name="Path 37469" d="M0,0H31.971V31.971H0Z" fill="none"/>
    </clipPath>
  </defs>
  <g id="verified" clip-path="url(#clip-path)">
    <path id="Path_37468" data-name="Path 37468" d="M8.983,7.108l.069.007a7.671,7.671,0,0,0,.868.057A5.016,5.016,0,0,0,13.379,5.74a7.7,7.7,0,0,0,.573-.654L14,5.032c.251-.309.409-.5.533-.645a2.011,2.011,0,0,1,.149-.16,1.019,1.019,0,0,1,1.289,0,2,2,0,0,1,.149.16c.124.142.281.336.533.645l.044.054h0a7.677,7.677,0,0,0,.573.654,5.016,5.016,0,0,0,3.459,1.433,7.667,7.667,0,0,0,.868-.057h0l.069-.007c.4-.041.644-.066.832-.079a1.979,1.979,0,0,1,.218-.008,1.019,1.019,0,0,1,.911.911,1.981,1.981,0,0,1-.008.218c-.013.188-.038.436-.079.832l-.007.069h0a7.692,7.692,0,0,0-.057.868A5.015,5.015,0,0,0,24.9,13.379a7.706,7.706,0,0,0,.654.573h0L25.61,14c.309.251.5.409.645.532a2.006,2.006,0,0,1,.16.149,1.019,1.019,0,0,1,0,1.289,2.005,2.005,0,0,1-.16.149c-.142.124-.336.281-.645.532l-.054.044h0a7.706,7.706,0,0,0-.654.573,5.015,5.015,0,0,0-1.433,3.459,7.693,7.693,0,0,0,.057.868h0l.007.069c.041.4.066.644.079.832a1.982,1.982,0,0,1,.008.218,1.019,1.019,0,0,1-.911.911,1.985,1.985,0,0,1-.218-.008c-.188-.013-.436-.038-.832-.079l-.069-.007a7.662,7.662,0,0,0-.868-.057A5.016,5.016,0,0,0,17.263,24.9a7.664,7.664,0,0,0-.573.654h0l-.044.054c-.251.309-.409.5-.533.645a1.965,1.965,0,0,1-.149.16,1.019,1.019,0,0,1-1.289,0,1.966,1.966,0,0,1-.149-.16c-.124-.142-.281-.336-.533-.645l-.044-.054a7.668,7.668,0,0,0-.573-.654A5.016,5.016,0,0,0,9.92,23.469a7.662,7.662,0,0,0-.868.057l-.069.007c-.4.041-.644.066-.832.079a1.983,1.983,0,0,1-.218.008,1.019,1.019,0,0,1-.911-.911,1.985,1.985,0,0,1,.008-.218c.013-.188.038-.436.079-.832l.007-.069a7.67,7.67,0,0,0,.057-.868A5.016,5.016,0,0,0,5.74,17.263a7.678,7.678,0,0,0-.654-.573h0l-.054-.044c-.309-.251-.5-.409-.645-.532a1.987,1.987,0,0,1-.16-.149,1.019,1.019,0,0,1,0-1.289,1.984,1.984,0,0,1,.16-.149c.142-.124.336-.281.645-.532l.054-.044h0a7.653,7.653,0,0,0,.654-.573A5.016,5.016,0,0,0,7.173,9.92a7.671,7.671,0,0,0-.057-.868l-.007-.069c-.041-.4-.066-.644-.079-.832a1.985,1.985,0,0,1-.008-.218,1.019,1.019,0,0,1,.911-.911,1.978,1.978,0,0,1,.218.008c.188.013.436.038.832.079Zm-1.962.824h0ZM4.228,15.965h0Zm3.7,7.656h0Zm8.033,2.794h0ZM26.414,14.677h0Zm-3.7-7.655h0ZM14.677,4.228h0Zm-2.232-.456h0a8.185,8.185,0,0,1,.966-1.09,3.018,3.018,0,0,1,3.821,0,8.187,8.187,0,0,1,.966,1.09h0a6.662,6.662,0,0,0,.465.541,3.018,3.018,0,0,0,2.081.862,6.648,6.648,0,0,0,.711-.054,8.178,8.178,0,0,1,1.454-.088,3.018,3.018,0,0,1,2.7,2.7,8.176,8.176,0,0,1-.088,1.454,6.628,6.628,0,0,0-.054.711,3.017,3.017,0,0,0,.862,2.081,6.641,6.641,0,0,0,.541.465h0a8.174,8.174,0,0,1,1.09.966,3.018,3.018,0,0,1,0,3.821,8.171,8.171,0,0,1-1.09.966h0a6.634,6.634,0,0,0-.541.465,3.018,3.018,0,0,0-.862,2.081,6.628,6.628,0,0,0,.054.711,8.176,8.176,0,0,1,.088,1.454,3.018,3.018,0,0,1-2.7,2.7,8.182,8.182,0,0,1-1.454-.088,6.664,6.664,0,0,0-.711-.054,3.018,3.018,0,0,0-2.081.862,6.679,6.679,0,0,0-.465.541h0a8.187,8.187,0,0,1-.966,1.09,3.018,3.018,0,0,1-3.821,0,8.186,8.186,0,0,1-.966-1.09h0a6.669,6.669,0,0,0-.464-.541A3.018,3.018,0,0,0,9.9,25.467a6.664,6.664,0,0,0-.711.054,8.18,8.18,0,0,1-1.454.088,3.018,3.018,0,0,1-2.7-2.7,8.176,8.176,0,0,1,.088-1.454,6.65,6.65,0,0,0,.054-.711,3.018,3.018,0,0,0-.862-2.081,6.64,6.64,0,0,0-.541-.465h0a8.167,8.167,0,0,1-1.09-.966,3.017,3.017,0,0,1,0-3.821,8.169,8.169,0,0,1,1.09-.966h0a6.65,6.65,0,0,0,.541-.465A3.018,3.018,0,0,0,5.175,9.9a6.65,6.65,0,0,0-.054-.711h0a8.176,8.176,0,0,1-.088-1.454,3.018,3.018,0,0,1,2.7-2.7,8.176,8.176,0,0,1,1.454.088h0a6.648,6.648,0,0,0,.711.054,3.018,3.018,0,0,0,2.081-.862,6.649,6.649,0,0,0,.465-.541Zm7.579,9.591a1,1,0,1,0-1.413-1.413l-4.622,4.622-1.958-1.958a1,1,0,0,0-1.413,1.413l2.664,2.664a1,1,0,0,0,1.413,0Z" transform="translate(0.664 0.664)" fill="#31c163" fill-rule="evenodd"/>
  </g>
</svg>
